# xmcd
#
# Track frame offsets:
# 182
# 20457
# 44655
# 55907
# 79992
# 104057
# 121157
# 140982
# 157757
# 174912
# 192972
#
# Disc length: 2751 seconds
#
#
# Revision: 0
# Processed by: cddbd v1.5.1PL0 Copyright (c) Steve Scherf et al.
# Submitted via: FreeRIP 2.942 
#
DISCID=960abd0b
DTITLE=Selda Baðcan - Ziller Ve Ýpler
DYEAR=1995
DGENRE=Özgün
TTITLE0=Ziller Ve Ýpler
TTITLE1=Asya Aðlýyor
TTITLE2=Sürgün
TTITLE3=Ellerinle Bana Baharlar Getir
TTITLE4=Küçük Afrikalý Çocuk
TTITLE5=Oku Tar
TTITLE6=Gülüþün Kalýr Bende
TTITLE7=Beni Unutma
TTITLE8=Acýlarýn Rýhtýmýnda
TTITLE9=Silahlarý Yandýrýn
TTITLE10=Bulutlara Selam Ver
EXTD=
EXTT0=
EXTT1=
EXTT2=
EXTT3=
EXTT4=
EXTT5=
EXTT6=
EXTT7=
EXTT8=
EXTT9=
EXTT10=
PLAYORDER=
